<svg width="1241" height="1130" viewBox="0 0 1241 1130" fill="none" xmlns="http://www.w3.org/2000/svg">
<path d="M1240.65 -328L1239.94 -327.588C1235.15 -324.826 1233.52 -318.71 1236.28 -313.927C1237.33 -312.099 1238.88 -310.731 1240.65 -309.891V-328Z" fill="#F7F8FA"/>
<path d="M1240.65 -278.642L0.651475 437.345L0.651475 460.362L1240.65 -255.552V-278.642Z" fill="#F7F8FA"/>
<path d="M1240.65 -223.846L0.651287 490.362L0.651283 607.569L1240.65 -108.345V-223.846Z" fill="#F7F8FA"/>
<path d="M1240.65 -81.5036L1224.99 -72.4633L1234.99 -55.1429L1240.65 -58.4096V-81.5036Z" fill="#F7F8FA"/>
<path d="M1240.65 -26.7514L0.651371 687.481L0.651514 1129.38L1240.65 413.468V-26.7514Z" fill="#F7F8FA"/>
<path d="M1188.15 -297.688C1183.37 -294.926 1181.73 -288.81 1184.49 -284.027C1187.25 -279.244 1193.37 -277.606 1198.15 -280.367L1215.41 -290.334C1220.19 -293.095 1221.83 -299.211 1219.07 -303.994C1216.31 -308.777 1210.19 -310.416 1205.41 -307.654L1188.15 -297.688Z" fill="#F7F8FA"/>
<path d="M1132.7 -254.127C1129.94 -258.91 1131.58 -265.026 1136.36 -267.788L1153.62 -277.754C1158.41 -280.516 1164.52 -278.877 1167.28 -274.094C1170.04 -269.311 1168.41 -263.195 1163.62 -260.434L1146.36 -250.467C1141.58 -247.706 1135.46 -249.344 1132.7 -254.127Z" fill="#F7F8FA"/>
<path d="M1084.57 -237.887C1079.79 -235.126 1078.15 -229.01 1080.91 -224.227C1083.67 -219.444 1089.79 -217.806 1094.57 -220.567L1111.83 -230.534C1116.62 -233.295 1118.26 -239.411 1115.49 -244.194C1112.73 -248.977 1106.62 -250.616 1101.83 -247.854L1084.57 -237.887Z" fill="#F7F8FA"/>
<path d="M1029.12 -194.327C1026.36 -199.11 1028 -205.226 1032.78 -207.987L1050.05 -217.954C1054.83 -220.716 1060.95 -219.077 1063.71 -214.294C1066.47 -209.511 1064.83 -203.395 1060.05 -200.634L1042.78 -190.667C1038 -187.906 1031.88 -189.544 1029.12 -194.327Z" fill="#F7F8FA"/>
<path d="M980.995 -178.087C976.212 -175.326 974.574 -169.21 977.335 -164.427C980.096 -159.644 986.212 -158.006 990.995 -160.767L1008.26 -170.734C1013.04 -173.495 1014.68 -179.611 1011.92 -184.394C1009.16 -189.177 1003.04 -190.816 998.258 -188.054L980.995 -178.087Z" fill="#F7F8FA"/>
<path d="M925.547 -134.527C922.785 -139.31 924.424 -145.426 929.207 -148.187L946.47 -158.154C951.253 -160.915 957.369 -159.277 960.13 -154.494C962.891 -149.711 961.253 -143.595 956.47 -140.834L939.207 -130.867C934.424 -128.105 928.308 -129.744 925.547 -134.527Z" fill="#F7F8FA"/>
<path d="M877.419 -118.287C872.636 -115.526 870.997 -109.41 873.758 -104.627C876.52 -99.8442 882.636 -98.2055 887.419 -100.967L904.681 -110.934C909.464 -113.695 911.103 -119.811 908.342 -124.594C905.58 -129.377 899.464 -131.015 894.681 -128.254L877.419 -118.287Z" fill="#F7F8FA"/>
<path d="M821.97 -74.7272C819.209 -79.5101 820.847 -85.626 825.63 -88.3874L842.893 -98.3541C847.676 -101.115 853.792 -99.4767 856.553 -94.6938C859.315 -89.9109 857.676 -83.795 852.893 -81.0336L835.63 -71.0669C830.847 -68.3055 824.731 -69.9442 821.97 -74.7272Z" fill="#F7F8FA"/>
<path d="M773.842 -58.4874C769.059 -55.726 767.42 -49.6101 770.182 -44.8271C772.943 -40.0442 779.059 -38.4055 783.842 -41.1669L801.105 -51.1335C805.888 -53.895 807.526 -60.0109 804.765 -64.7938C802.003 -69.5767 795.888 -71.2155 791.105 -68.454L773.842 -58.4874Z" fill="#F7F8FA"/>
<path d="M718.393 -14.9272C715.632 -19.7101 717.271 -25.826 722.054 -28.5874L739.316 -38.5541C744.099 -41.3155 750.215 -39.6768 752.977 -34.8938C755.738 -30.1109 754.099 -23.995 749.316 -21.2336L732.054 -11.2669C727.271 -8.50549 721.155 -10.1443 718.393 -14.9272Z" fill="#F7F8FA"/>
<path d="M670.265 1.31259C665.482 4.07401 663.844 10.1899 666.605 14.9728C669.366 19.7558 675.482 21.3945 680.265 18.6331L697.528 8.66644C702.311 5.905 703.95 -0.210876 701.188 -4.9938C698.427 -9.77673 692.311 -11.4155 687.528 -8.65405L670.265 1.31259Z" fill="#F7F8FA"/>
<path d="M614.817 44.8728C612.055 40.0899 613.694 33.974 618.477 31.2126L635.74 21.2459C640.523 18.4845 646.639 20.1232 649.4 24.9062C652.161 29.6891 650.523 35.805 645.74 38.5664L628.477 48.5331C623.694 51.2945 617.578 49.6558 614.817 44.8728Z" fill="#F7F8FA"/>
<path d="M566.689 61.1126C561.906 63.874 560.267 69.9899 563.028 74.7728C565.79 79.5558 571.906 81.1945 576.689 78.4331L593.951 68.4664C598.734 65.705 600.373 59.5891 597.612 54.8062C594.85 50.0232 588.734 48.3845 583.951 51.1459L566.689 61.1126Z" fill="#F7F8FA"/>
<path d="M511.24 104.673C508.479 99.8899 510.117 93.774 514.9 91.0126L532.163 81.0459C536.946 78.2845 543.062 79.9232 545.823 84.7061C548.585 89.4891 546.946 95.605 542.163 98.3664L524.9 108.333C520.117 111.094 514.002 109.456 511.24 104.673Z" fill="#F7F8FA"/>
<path d="M463.112 120.913C458.329 123.674 456.69 129.79 459.452 134.573C462.213 139.356 468.329 140.994 473.112 138.233L490.375 128.266C495.158 125.505 496.797 119.389 494.035 114.606C491.274 109.823 485.158 108.184 480.375 110.946L463.112 120.913Z" fill="#F7F8FA"/>
<path d="M407.664 164.473C404.902 159.69 406.541 153.574 411.324 150.813L428.587 140.846C433.369 138.084 439.485 139.723 442.247 144.506C445.008 149.289 443.369 155.405 438.587 158.166L421.324 168.133C416.541 170.895 410.425 169.256 407.664 164.473Z" fill="#F7F8FA"/>
<path d="M359.535 180.713C354.753 183.474 353.114 189.59 355.875 194.373C358.637 199.156 364.753 200.794 369.535 198.033L386.798 188.066C391.581 185.305 393.22 179.189 390.458 174.406C387.697 169.623 381.581 167.984 376.798 170.746L359.535 180.713Z" fill="#F7F8FA"/>
<path d="M304.087 224.273C301.325 219.49 302.964 213.374 307.747 210.613L325.01 200.646C329.793 197.885 335.909 199.523 338.67 204.306C341.432 209.089 339.793 215.205 335.01 217.966L317.747 227.933C312.964 230.695 306.848 229.056 304.087 224.273Z" fill="#F7F8FA"/>
<path d="M255.959 240.513C251.176 243.274 249.537 249.39 252.299 254.173C255.06 258.956 261.176 260.594 265.959 257.833L283.222 247.866C288.005 245.105 289.643 238.989 286.882 234.206C284.12 229.423 278.005 227.784 273.222 230.546L255.959 240.513Z" fill="#F7F8FA"/>
<path d="M200.51 284.073C197.749 279.29 199.388 273.174 204.171 270.413L221.433 260.446C226.216 257.684 232.332 259.323 235.094 264.106C237.855 268.889 236.216 275.005 231.433 277.766L214.171 287.733C209.388 290.495 203.272 288.856 200.51 284.073Z" fill="#F7F8FA"/>
<path d="M152.382 300.313C147.599 303.074 145.961 309.19 148.722 313.973C151.483 318.756 157.599 320.394 162.382 317.633L179.645 307.666C184.428 304.905 186.067 298.789 183.305 294.006C180.544 289.223 174.428 287.584 169.645 290.346L152.382 300.313Z" fill="#F7F8FA"/>
<path d="M96.9336 343.873C94.1722 339.09 95.811 332.974 100.594 330.213L117.857 320.246C122.64 317.484 128.755 319.123 131.517 323.906C134.278 328.689 132.64 334.805 127.857 337.566L110.594 347.533C105.811 350.294 99.6951 348.656 96.9336 343.873Z" fill="#F7F8FA"/>
<path d="M48.8056 360.113C44.0226 362.874 42.3839 368.99 45.1453 373.773C47.9067 378.556 54.0226 380.195 58.8056 377.433L76.0683 367.466C80.8513 364.705 82.49 358.589 79.7286 353.806C76.9672 349.023 70.8513 347.384 66.0683 350.146L48.8056 360.113Z" fill="#F7F8FA"/>
<path d="M5.64864 385.029C0.865716 387.791 -0.773035 393.907 1.98839 398.689C4.74981 403.472 10.8657 405.111 15.6486 402.35L24.28 397.366C29.063 394.605 30.7017 388.489 27.9403 383.706C25.1789 378.923 19.063 377.284 14.28 380.046L5.64864 385.029Z" fill="#F7F8FA"/>
<path d="M1200.47 -35.2086L1217.73 -45.1758L1207.73 -62.4962L1190.47 -52.5291L1200.47 -35.2086Z" fill="#F7F8FA"/>
<path d="M1183.2 -25.2415L1165.94 -15.2744L1155.94 -32.5949L1173.2 -42.562L1183.2 -25.2415Z" fill="#F7F8FA"/>
<path d="M1131.41 4.65979L1148.68 -5.30734L1138.68 -22.6278L1121.41 -12.6607L1131.41 4.65979Z" fill="#F7F8FA"/>
<path d="M1114.15 14.6269L1096.89 24.594L1086.89 7.27347L1104.15 -2.6936L1114.15 14.6269Z" fill="#F7F8FA"/>
<path d="M1062.36 44.5282L1079.62 34.5611L1069.62 17.2406L1052.36 27.2077L1062.36 44.5282Z" fill="#F7F8FA"/>
<path d="M1045.09 54.4953L1027.83 64.4624L1017.83 47.1418L1035.09 37.1748L1045.09 54.4953Z" fill="#F7F8FA"/>
<path d="M993.304 84.3966L1010.57 74.4295L1000.57 57.109L983.304 67.0761L993.304 84.3966Z" fill="#F7F8FA"/>
<path d="M976.041 94.3637L958.777 104.331L948.777 87.0103L966.041 77.0432L976.041 94.3637Z" fill="#F7F8FA"/>
<path d="M924.25 124.265L941.514 114.298L931.514 96.9774L914.25 106.944L924.25 124.265Z" fill="#F7F8FA"/>
<path d="M906.987 134.232L889.723 144.199L879.723 126.879L896.987 116.912L906.987 134.232Z" fill="#F7F8FA"/>
<path d="M855.196 164.133L872.46 154.166L862.46 136.846L845.196 146.813L855.196 164.133Z" fill="#F7F8FA"/>
<path d="M837.932 174.1L820.669 184.068L810.669 166.747L827.932 156.78L837.932 174.1Z" fill="#F7F8FA"/>
<path d="M786.142 204.002L803.406 194.035L793.406 176.714L776.142 186.681L786.142 204.002Z" fill="#F7F8FA"/>
<path d="M768.878 213.969L751.615 223.936L741.615 206.616L758.878 196.648L768.878 213.969Z" fill="#F7F8FA"/>
<path d="M717.088 243.87L734.351 233.903L724.351 216.583L707.088 226.55L717.088 243.87Z" fill="#F7F8FA"/>
<path d="M699.824 253.837L682.561 263.804L672.561 246.484L689.824 236.517L699.824 253.837Z" fill="#F7F8FA"/>
<path d="M648.034 283.739L665.297 273.772L655.297 256.451L638.034 266.418L648.034 283.739Z" fill="#F7F8FA"/>
<path d="M630.77 293.706L613.507 303.673L603.507 286.352L620.77 276.385L630.77 293.706Z" fill="#F7F8FA"/>
<path d="M578.98 323.607L596.243 313.64L586.243 296.319L568.98 306.287L578.98 323.607Z" fill="#F7F8FA"/>
<path d="M561.716 333.574L544.453 343.541L534.453 326.221L551.716 316.254L561.716 333.574Z" fill="#F7F8FA"/>
<path d="M509.926 363.475L527.189 353.508L517.189 336.188L499.926 346.155L509.926 363.475Z" fill="#F7F8FA"/>
<path d="M492.662 373.443L475.399 383.41L465.399 366.089L482.662 356.122L492.662 373.443Z" fill="#F7F8FA"/>
<path d="M440.872 403.344L458.135 393.377L448.135 376.056L430.872 386.023L440.872 403.344Z" fill="#F7F8FA"/>
<path d="M423.608 413.311L406.344 423.278L396.344 405.958L413.608 395.99L423.608 413.311Z" fill="#F7F8FA"/>
<path d="M371.817 443.212L389.081 433.245L379.081 415.925L361.817 425.892L371.817 443.212Z" fill="#F7F8FA"/>
<path d="M354.554 453.179L337.29 463.147L327.29 445.826L344.554 435.859L354.554 453.179Z" fill="#F7F8FA"/>
<path d="M302.763 483.081L320.027 473.114L310.027 455.793L292.763 465.76L302.763 483.081Z" fill="#F7F8FA"/>
<path d="M285.5 493.048L268.236 503.015L258.236 485.694L275.5 475.727L285.5 493.048Z" fill="#F7F8FA"/>
<path d="M233.709 522.949L250.973 512.982L240.973 495.661L223.709 505.629L233.709 522.949Z" fill="#F7F8FA"/>
<path d="M216.446 532.916L199.182 542.883L189.182 525.563L206.446 515.596L216.446 532.916Z" fill="#F7F8FA"/>
<path d="M164.655 562.818L181.919 552.85L171.919 535.53L154.655 545.497L164.655 562.818Z" fill="#F7F8FA"/>
<path d="M147.391 572.785L130.128 582.752L120.128 565.431L137.391 555.464L147.391 572.785Z" fill="#F7F8FA"/>
<path d="M95.6009 602.686L112.864 592.719L102.864 575.398L85.6009 585.365L95.6009 602.686Z" fill="#F7F8FA"/>
<path d="M78.3374 612.653L61.0738 622.62L51.0738 605.3L68.3374 595.333L78.3374 612.653Z" fill="#F7F8FA"/>
<path d="M26.5468 642.554L43.8103 632.587L33.8103 615.267L16.5468 625.234L26.5468 642.554Z" fill="#F7F8FA"/>
<path d="M9.28324 652.521L0.651474 657.505V637.559L9.28324 652.521Z" fill="#F7F8FA"/>
</svg>
