<svg width="0" height="0" class="hidden">

  <!-- logo  -->
  <symbol fill="none" xmlns="http://www.w3.org/2000/svg" viewBox="0 0 150 24" id="logo">
    <path d="M0 23.612V.97h4.554l10.52 13.941V.971h4.874v22.64h-4.201L4.875 9.219v14.394H0zm22.771 0V.97h16.934v4.432H27.678v4.593h10.584v4.43H27.678v4.756h12.187v4.43H22.771zm18.919 0V.97h10.263c2.844 0 5.025.766 6.543 2.297 1.283 1.294 1.924 3.04 1.924 5.24 0 3.472-1.603 5.811-4.81 7.019l5.484 8.086H55.32l-4.875-7.245H46.63v7.245h-4.94zm4.94-11.644h5.003c1.197 0 2.127-.291 2.79-.874.663-.603.994-1.401.994-2.393 0-1.057-.342-1.855-1.026-2.394-.684-.56-1.636-.84-2.855-.84H46.63v6.5zm35.106 8.636C79.47 22.868 76.626 24 73.206 24c-3.422 0-6.265-1.132-8.532-3.396-2.245-2.264-3.367-5.035-3.367-8.313 0-3.256 1.133-6.016 3.4-8.28C66.994 1.725 69.849.582 73.27.582c3.42 0 6.253 1.132 8.498 3.397 2.266 2.264 3.4 5.035 3.4 8.312 0 3.256-1.144 6.027-3.432 8.313zm-13.341-3.267c1.282 1.38 2.907 2.07 4.874 2.07 1.968 0 3.582-.68 4.843-2.038 1.262-1.38 1.892-3.072 1.892-5.078 0-1.984-.641-3.666-1.924-5.046-1.283-1.38-2.908-2.07-4.875-2.07s-3.58.69-4.842 2.07c-1.262 1.359-1.893 3.04-1.893 5.046 0 1.984.642 3.666 1.925 5.046z" fill="#2676D1"></path>
    <path d="M92.288 23.612V5.563h-6.831V.97h18.601v4.593h-6.832v18.049h-4.938z" fill="#E84061"></path>
    <path d="M109.541 24c-2.609 0-4.757-.83-6.447-2.49-1.689-1.683-2.533-3.86-2.533-6.534 0-2.523.802-4.658 2.405-6.405 1.604-1.746 3.635-2.62 6.094-2.62 2.715 0 4.789.906 6.221 2.717 1.433 1.812 2.149 4.044 2.149 6.696 0 .259-.021.69-.064 1.294h-11.962c.235 1.1.716 1.94 1.443 2.523.727.582 1.646.873 2.758.873 1.518 0 2.908-.593 4.169-1.78l2.79 2.491c-1.732 2.157-4.073 3.235-7.023 3.235zm-4.202-10.415h7.345c-.15-1.121-.546-2.016-1.187-2.685-.62-.668-1.432-1.002-2.437-1.002-.984 0-1.807.334-2.47 1.002-.641.647-1.058 1.542-1.251 2.685zM126.611 24c-2.565 0-4.703-.873-6.414-2.62-1.689-1.747-2.533-3.881-2.533-6.404 0-2.502.855-4.626 2.565-6.372 1.711-1.768 3.859-2.653 6.447-2.653 2.758 0 5.035 1.014 6.831 3.04l-2.855 2.912c-1.197-1.143-2.533-1.714-4.009-1.714-1.197 0-2.191.463-2.982 1.39-.791.928-1.187 2.06-1.187 3.397 0 1.358.396 2.501 1.187 3.428.812.906 1.871 1.359 3.175 1.359 1.347 0 2.662-.615 3.945-1.844l2.854 2.911c-.941 1.035-1.946 1.822-3.015 2.361-1.069.54-2.405.809-4.009.809zm7.642-.388V0h4.875v8.733c1.433-1.854 3.111-2.782 5.035-2.782 1.839 0 3.272.572 4.298 1.715 1.026 1.143 1.539 2.717 1.539 4.722v11.224h-4.875V13.94c0-1.143-.256-2.017-.769-2.62-.513-.604-1.24-.906-2.181-.906-.941 0-1.689.302-2.245.906-.534.604-.802 1.477-.802 2.62v9.67h-4.875z" fill="#E84061"></path>
  </symbol>

  <!-- third block -->

  <!-- 1 -->
  <symbol fill="none" xmlns="http://www.w3.org/2000/svg" viewBox="0 0 120 120" id="third-1">
    <g clip-path="url(#clip0)">
      <path d="M112.096 117H7.904C4.644 117 2 114.251 2 110.861V20h116v90.861c0 3.39-2.643 6.139-5.904 6.139z" fill="#fff"></path>
      <path d="M70.595 2.344h41.192a5.87 5.87 0 015.869 5.869v11.486H2.344V8.213a5.87 5.87 0 015.87-5.87h41.19" fill="#2676D1"></path>
      <path d="M47.483 77.446l-.398-.234c-6.88-4.34-11.46-12.008-11.46-20.727C35.625 42.986 46.609 32 60.111 32c11.027 0 20.375 7.327 23.43 17.369a24.414 24.414 0 011.055 7.117c0 8.894-4.767 16.695-11.88 20.984" fill="#A1DBF1"></path>
      <path d="M69.768 52.85c.856-5.348-2.785-10.378-8.134-11.234C56.285 40.76 51.255 44.4 50.4 49.75c-.856 5.349 2.786 10.379 8.134 11.235 5.35.856 10.38-2.786 11.235-8.134z" fill="#2676D1"></path>
      <path d="M72.716 65.514V77.47a24.328 24.328 0 01-12.606 3.5 24.35 24.35 0 01-12.606-3.5V65.513A4.414 4.414 0 0151.92 61.1h16.383a4.414 4.414 0 014.414 4.414z" fill="#2676D1"></path>
      <path d="M111.787 0H70.595a2.344 2.344 0 100 4.687h41.192a3.53 3.53 0 013.525 3.526v9.142H4.688V8.213a3.53 3.53 0 013.525-3.526h64.63a2.344 2.344 0 000-4.687H8.212C3.684 0 0 3.684 0 8.213v103.574C0 116.316 3.684 120 8.213 120h103.574c4.529 0 8.213-3.684 8.213-8.213V8.213C120 3.684 116.316 0 111.787 0zm3.525 111.786a3.529 3.529 0 01-3.525 3.526H8.213a3.53 3.53 0 01-3.525-3.526V22.043h110.624v89.743z" fill="#2676D1"></path>
      <path d="M81.538 13.365a2.344 2.344 0 000-4.687h-1.915a2.344 2.344 0 000 4.687h1.915zm11.669 0a2.344 2.344 0 000-4.687h-1.915a2.344 2.344 0 000 4.687h1.915zm11.668 0a2.344 2.344 0 100-4.687h-1.915a2.343 2.343 0 000 4.687h1.915z" fill="#fff"></path>
      <path d="M44.297 94.016a2.344 2.344 0 012.344-2.344h54.375a2.343 2.343 0 010 4.687H46.641a2.344 2.344 0 01-2.344-2.343zm-6.517 6.316l-2.417-1.611-2.148-1.432a.952.952 0 00-1.278.208l-1.33 1.708a.947.947 0 01-1.208.251c-.902-.502-1.968-.974-4.322-3.33-2.353-2.357-2.828-3.42-3.33-4.322a.947.947 0 01.25-1.209l1.71-1.329a.952.952 0 00.207-1.278l-1.388-2.082-1.655-2.482a.952.952 0 00-1.281-.288l-1.909 1.145a2.332 2.332 0 00-1.059 1.37c-.522 1.903-.627 6.101 6.101 12.83 6.728 6.727 10.926 6.622 12.829 6.1a2.331 2.331 0 001.37-1.059l1.146-1.909a.952.952 0 00-.289-1.281z" fill="#3E4956"></path>
    </g>
    <defs>
      <clipPath id="clip0">
        <path fill="#fff" d="M0 0h120v120H0z"></path>
      </clipPath>
    </defs>
  </symbol>

  <!-- 2 -->
  <symbol fill="none" xmlns="http://www.w3.org/2000/svg" viewBox="0 0 120 120" id="third-2">
    <g clip-path="url(#clip0)">
      <path d="M96.824 101.06H6.828c-2.817 0-5.1-2.374-5.1-5.302V17.275h100.196v78.483c0 2.928-2.283 5.302-5.1 5.302z" fill="#fff"></path>
      <path d="M60.978 2.024h35.58a5.07 5.07 0 015.069 5.07v9.921H2.024V7.094c0-2.8 2.27-5.07 5.07-5.07h35.58" fill="#2676D1"></path>
      <path d="M43.839 53.645l-.252-.148c-4.351-2.745-7.248-7.595-7.248-13.11 0-8.539 6.947-15.486 15.487-15.486 6.975 0 12.887 4.634 14.82 10.985a15.44 15.44 0 01.667 4.502c0 5.625-3.015 10.56-7.514 13.273" fill="#A1DBF1"></path>
      <path d="M57.935 38.089a6.203 6.203 0 10-12.251-1.962 6.203 6.203 0 0012.25 1.962z" fill="#2676D1"></path>
      <path d="M59.799 46.098v7.562a15.388 15.388 0 01-7.973 2.215c-2.914 0-5.643-.81-7.973-2.214v-7.563a2.792 2.792 0 012.792-2.792h10.362a2.792 2.792 0 012.792 2.792z" fill="#2676D1"></path>
      <path d="M12.147 68.523a8.115 8.115 0 018.115-8.115h44.915a8.115 8.115 0 110 16.23H20.262a8.115 8.115 0 01-8.115-8.115z" fill="#A1DBF1"></path>
      <path d="M23.864 64.419c.38-.828 1.558-.828 1.939 0l.168.365c.213.465.728.713 1.225.59l.39-.096c.885-.22 1.62.701 1.209 1.516l-.18.359a1.067 1.067 0 00.302 1.325l.318.245c.723.556.461 1.704-.431 1.89l-.393.083a1.067 1.067 0 00-.848 1.063l.007.402c.016.912-1.044 1.423-1.747.841l-.31-.256a1.067 1.067 0 00-1.36 0l-.31.256c-.702.582-1.763.07-1.746-.84l.007-.403a1.067 1.067 0 00-.848-1.063l-.393-.082c-.893-.187-1.155-1.335-.432-1.89l.319-.246c.406-.312.533-.868.302-1.325l-.18-.36c-.41-.814.323-1.734 1.209-1.515l.39.096a1.067 1.067 0 001.225-.59l.168-.365zm11.913 0c.38-.828 1.558-.828 1.939 0l.168.365c.213.465.728.713 1.225.59l.39-.096c.885-.22 1.62.701 1.209 1.516l-.18.359a1.067 1.067 0 00.302 1.325l.319.245c.722.556.46 1.704-.432 1.89l-.393.083a1.067 1.067 0 00-.848 1.063l.007.402c.016.912-1.044 1.423-1.747.841l-.31-.256a1.067 1.067 0 00-1.36 0l-.31.256c-.702.582-1.763.07-1.746-.84l.007-.403a1.067 1.067 0 00-.848-1.063l-.393-.082c-.893-.187-1.155-1.335-.432-1.89l.319-.246c.406-.312.533-.868.303-1.325l-.181-.36c-.41-.814.324-1.734 1.209-1.515l.39.096a1.067 1.067 0 001.225-.59l.168-.365zm11.913 0c.38-.828 1.558-.828 1.939 0l.167.365c.214.465.729.713 1.226.59l.39-.096c.885-.22 1.62.701 1.209 1.516l-.181.359a1.067 1.067 0 00.303 1.325l.318.245c.723.556.461 1.704-.431 1.89l-.394.083a1.067 1.067 0 00-.847 1.063l.007.402c.016.912-1.044 1.423-1.747.841l-.31-.256a1.067 1.067 0 00-1.36 0l-.31.256c-.702.582-1.763.07-1.746-.84l.007-.403a1.067 1.067 0 00-.848-1.063l-.394-.082c-.892-.187-1.154-1.335-.43-1.89l.318-.246c.406-.312.533-.868.303-1.325l-.181-.36c-.41-.814.323-1.734 1.208-1.515l.39.096a1.067 1.067 0 001.226-.59l.168-.365zm11.913 0c.38-.828 1.558-.828 1.939 0l.167.365c.214.465.729.713 1.226.59l.39-.096c.885-.22 1.62.701 1.209 1.516l-.18.359a1.067 1.067 0 00.302 1.325l.318.245c.723.556.461 1.704-.431 1.89l-.393.083a1.067 1.067 0 00-.848 1.063l.007.402c.016.912-1.044 1.423-1.747.841l-.31-.256a1.067 1.067 0 00-1.36 0l-.31.256c-.702.582-1.763.07-1.746-.84l.007-.403a1.067 1.067 0 00-.848-1.063l-.393-.082c-.893-.187-1.155-1.335-.432-1.89l.319-.246c.406-.312.533-.868.303-1.325l-.181-.36c-.41-.814.323-1.734 1.209-1.515l.39.096a1.067 1.067 0 001.225-.59l.168-.365z" fill="#E84061"></path>
      <path d="M96.558 0h-35.58a2.024 2.024 0 100 4.049h35.58a3.049 3.049 0 013.045 3.045v7.897H4.049V7.094A3.049 3.049 0 017.094 4.05H62.92a2.025 2.025 0 000-4.05H7.093A7.102 7.102 0 000 7.095v89.464c0 3.911 3.182 7.094 7.094 7.094h89.464c3.911 0 7.094-3.183 7.094-7.094V7.094c0-3.912-3.183-7.094-7.094-7.094zm3.045 96.557a3.049 3.049 0 01-3.045 3.046H7.094a3.049 3.049 0 01-3.045-3.046V19.04h95.554v77.517z" fill="#2676D1"></path>
      <path d="M70.43 11.544a2.025 2.025 0 000-4.048h-1.655a2.025 2.025 0 000 4.048h1.654zm10.078 0a2.025 2.025 0 000-4.048h-1.653a2.025 2.025 0 000 4.048h1.653zm10.08 0a2.025 2.025 0 000-4.048h-1.654a2.025 2.025 0 000 4.048h1.654z" fill="#fff"></path>
      <g clip-path="url(#clip1)">
        <path d="M118.613 50.633V38.84a3.474 3.474 0 00-1.015-2.453 3.462 3.462 0 00-2.452-1.015H74.932a3.464 3.464 0 00-3.467 3.468v76.304a3.47 3.47 0 003.467 3.469h40.214a3.468 3.468 0 003.467-3.469V79.767" fill="#fff"></path>
        <path d="M101.973 40.921H88.106l-1.387-5.55h16.64l-1.386 5.55z" fill="#fff"></path>
        <path d="M101.973 111.676H88.106a1.387 1.387 0 100 2.775h13.867a1.388 1.388 0 000-2.775z" fill="#3E4956"></path>
        <rect x="87.563" y="82.715" width="14.953" height="14.96" rx="7.477" fill="#2676D1"></rect>
        <path d="M98.893 92.563l-.89-.593-.79-.527a.35.35 0 00-.47.077l-.489.629a.348.348 0 01-.444.092c-.332-.185-.725-.359-1.59-1.226-.866-.867-1.041-1.259-1.226-1.59a.348.348 0 01.093-.446l.628-.489a.35.35 0 00.077-.47l-.511-.767-.609-.913a.35.35 0 00-.471-.107l-.703.422a.858.858 0 00-.39.504c-.191.7-.23 2.246 2.245 4.723 2.476 2.476 4.02 2.437 4.72 2.245.212-.06.393-.2.505-.39l.421-.702a.35.35 0 00-.106-.472z" fill="#fff"></path>
        <path d="M118.577 49.652L120 115.144V38.84a4.86 4.86 0 00-4.854-4.856H74.932a4.858 4.858 0 00-4.854 4.856v76.304A4.86 4.86 0 0074.932 120h40.214a4.858 4.858 0 004.854-4.856l-1.423-65.492c.368 0-.26.26 0 0s0 .368 0 0 .26.26 0 0 .368 0 0 0zm-16.994-12.893l-.694 2.775h-11.7l-.693-2.775h13.087zm15.644 78.385a2.085 2.085 0 01-2.081 2.081H74.932a2.082 2.082 0 01-2.08-2.081V38.84a2.083 2.083 0 012.08-2.08h10.703l1.125 4.498a1.387 1.387 0 001.346 1.05h13.867a1.386 1.386 0 001.345-1.05l1.125-4.499h10.703a2.082 2.082 0 012.081 2.081v76.304l1.35-65.492c.26-.26-.368 0 0 0 0-.368-.26.26 0 0-.26-.26 0 .368 0 0-.368 0 .26.26 0 0-.152-.229 0 .274 0 0-.254-.105.152.228 0 0-.269.053.253.105 0 0-.194.194.269-.054 0 0 0 0-1.077 19.192-1.35 31.502-.295 13.271 0 33.99 0 33.99zm-.037-36.764l1.387-28.728c.26-.26-.368 0 0 0 .26.26 0-.368 0 0 .368 0-.26-.26 0 0l-1.387 2.368v26.36z" fill="#3E4956"></path>
        <rect x="76.226" y="63.257" width="3.467" height="3.468" rx="1.733" fill="#3E4956"></rect>
        <rect x="80.496" y="63.257" width="3.467" height="3.468" rx="1.733" fill="#3E4956"></rect>
        <rect x="84.766" y="63.257" width="3.467" height="3.468" rx="1.733" fill="#3E4956"></rect>
        <rect x="89.036" y="63.257" width="3.467" height="3.468" rx="1.733" fill="#3E4956"></rect>
        <rect x="93.306" y="63.257" width="3.467" height="3.468" rx="1.733" fill="#3E4956"></rect>
        <rect x="97.576" y="63.257" width="3.467" height="3.468" rx="1.733" fill="#E84061"></rect>
        <rect x="101.845" y="63.257" width="3.467" height="3.468" rx="1.733" fill="#E84061"></rect>
        <rect x="106.115" y="63.257" width="3.467" height="3.468" rx="1.733" fill="#E84061"></rect>
        <rect x="110.385" y="63.257" width="3.467" height="3.468" rx="1.733" fill="#E84061"></rect>
      </g>
    </g>
    <defs>
      <clipPath id="clip0">
        <path fill="#fff" d="M0 0h120v120H0z"></path>
      </clipPath>
      <clipPath id="clip1">
        <path fill="#fff" transform="translate(70.078 33.984)" d="M0 0h49.922v86.016H0z"></path>
      </clipPath>
    </defs>
  </symbol>

  <!-- 3 -->
  <symbol fill="none" xmlns="http://www.w3.org/2000/svg" viewBox="0 0 120 120" id="third-3">
    <g clip-path="url(#clip0)">
      <path d="M112.096 117H7.904C4.644 117 2 114.251 2 110.861V20h116v90.861c0 3.39-2.643 6.139-5.904 6.139z" fill="#fff"></path>
      <path d="M70.595 2.344h41.192a5.87 5.87 0 015.869 5.869v11.486H2.344V8.213a5.87 5.87 0 015.87-5.87h41.19" fill="#2676D1"></path>
      <path d="M47.483 77.446l-.398-.234c-6.88-4.34-11.46-12.008-11.46-20.726C35.625 42.984 46.609 32 60.111 32c11.027 0 20.375 7.327 23.43 17.369a24.414 24.414 0 011.055 7.117c0 8.894-4.767 16.695-11.88 20.984" fill="#A1DBF1"></path>
      <path d="M69.768 52.85c.857-5.348-2.785-10.378-8.134-11.234C56.285 40.76 51.255 44.4 50.4 49.75c-.856 5.349 2.786 10.379 8.134 11.235 5.35.856 10.38-2.786 11.235-8.134z" fill="#2676D1"></path>
      <path d="M72.716 65.514V77.47a24.328 24.328 0 01-12.606 3.5c-4.608 0-8.922-1.28-12.605-3.5V65.514a4.414 4.414 0 014.413-4.414h16.383a4.414 4.414 0 014.414 4.414z" fill="#2676D1"></path>
      <path d="M111.787 0H70.595a2.344 2.344 0 100 4.687h41.192a3.53 3.53 0 013.525 3.526v9.142H4.688V8.213a3.53 3.53 0 013.525-3.526h64.63a2.344 2.344 0 000-4.687H8.212C3.684 0 0 3.684 0 8.213v103.574C0 116.316 3.684 120 8.213 120h103.574c4.529 0 8.213-3.684 8.213-8.213V8.213C120 3.684 116.316 0 111.787 0zm3.525 111.786a3.529 3.529 0 01-3.525 3.526H8.213a3.53 3.53 0 01-3.525-3.526V22.043h110.624v89.743z" fill="#2676D1"></path>
      <path d="M81.538 13.365a2.344 2.344 0 000-4.687h-1.915a2.344 2.344 0 000 4.687h1.915zm11.669 0a2.344 2.344 0 000-4.687h-1.915a2.344 2.344 0 000 4.687h1.915zm11.668 0a2.344 2.344 0 100-4.687h-1.914a2.344 2.344 0 100 4.687h1.914z" fill="#fff"></path>
      <g clip-path="url(#clip1)">
        <path d="M57.832 104.3a.946.946 0 01-1.337 0l-5.337-5.339a1.417 1.417 0 010-2.005l.668-.669a1.418 1.418 0 012.005 0l3.333 3.333 9.005-9.005a1.418 1.418 0 012.005 0l.668.669a1.417 1.417 0 010 2.005L57.832 104.3z" fill="#3E4956"></path>
      </g>
    </g>
    <defs>
      <clipPath id="clip0">
        <path fill="#fff" d="M0 0h120v120H0z"></path>
      </clipPath>
      <clipPath id="clip1">
        <path fill="#fff" transform="translate(50.742 88.125)" d="M0 0h18.516v18.516H0z"></path>
      </clipPath>
    </defs>
  </symbol>

  <!-- link-arrow -->
  <symbol fill="none" xmlns="http://www.w3.org/2000/svg" viewBox="0 0 18 8" id="link-arrow">
    <path fill-rule="evenodd" clip-rule="evenodd" d="M14.369.16l3.471 3.456a.541.541 0 010 .768l-3.47 3.457a.547.547 0 01-.771 0 .542.542 0 010-.768l2.54-2.53H0V3.457h16.138l-2.54-2.53a.542.542 0 010-.768.547.547 0 01.771 0z" fill="#E84061"></path>
  </symbol>

  <!-- star  -->
  <symbol fill="none" xmlns="http://www.w3.org/2000/svg" viewBox="0 0 17 15" id="star">
    <path d="M8.5 0l2.586 4.44 5.022 1.088-3.423 3.832.517 5.112L8.5 12.4l-4.702 2.072.517-5.112L.892 5.528 5.914 4.44 8.5 0z" fill="#A1DBF1"></path>
  </symbol>

</svg>