<svg width="0" height="0" class="hidden">
  <symbol fill="none" xmlns="http://www.w3.org/2000/svg" viewBox="0 0 150 24" id="logo">
    <path d="M0 23.612V.97h4.554l10.52 13.941V.971h4.874v22.64h-4.201L4.875 9.219v14.394H0zm22.771 0V.97h16.934v4.432H27.678v4.593h10.584v4.43H27.678v4.756h12.187v4.43H22.771zm18.919 0V.97h10.263c2.844 0 5.025.766 6.543 2.297 1.283 1.294 1.924 3.04 1.924 5.24 0 3.472-1.603 5.811-4.81 7.019l5.484 8.086H55.32l-4.875-7.245H46.63v7.245h-4.94zm4.94-11.644h5.003c1.197 0 2.127-.291 2.79-.874.663-.603.994-1.401.994-2.393 0-1.057-.342-1.855-1.026-2.394-.684-.56-1.636-.84-2.855-.84H46.63v6.5zm35.106 8.636C79.47 22.868 76.626 24 73.206 24c-3.422 0-6.265-1.132-8.532-3.396-2.245-2.264-3.367-5.035-3.367-8.313 0-3.256 1.133-6.016 3.4-8.28C66.994 1.725 69.849.582 73.27.582c3.42 0 6.253 1.132 8.498 3.397 2.266 2.264 3.4 5.035 3.4 8.312 0 3.256-1.144 6.027-3.432 8.313zm-13.341-3.267c1.282 1.38 2.907 2.07 4.874 2.07 1.968 0 3.582-.68 4.843-2.038 1.262-1.38 1.892-3.072 1.892-5.078 0-1.984-.641-3.666-1.924-5.046-1.283-1.38-2.908-2.07-4.875-2.07s-3.58.69-4.842 2.07c-1.262 1.359-1.893 3.04-1.893 5.046 0 1.984.642 3.666 1.925 5.046z" fill="#2676D1"></path>
    <path d="M92.288 23.612V5.563h-6.831V.97h18.601v4.593h-6.832v18.049h-4.938z" fill="#E84061"></path>
    <path d="M109.541 24c-2.609 0-4.757-.83-6.447-2.49-1.689-1.683-2.533-3.86-2.533-6.534 0-2.523.802-4.658 2.405-6.405 1.604-1.746 3.635-2.62 6.094-2.62 2.715 0 4.789.906 6.221 2.717 1.433 1.812 2.149 4.044 2.149 6.696 0 .259-.021.69-.064 1.294h-11.962c.235 1.1.716 1.94 1.443 2.523.727.582 1.646.873 2.758.873 1.518 0 2.908-.593 4.169-1.78l2.79 2.491c-1.732 2.157-4.073 3.235-7.023 3.235zm-4.202-10.415h7.345c-.15-1.121-.546-2.016-1.187-2.685-.62-.668-1.432-1.002-2.437-1.002-.984 0-1.807.334-2.47 1.002-.641.647-1.058 1.542-1.251 2.685zM126.611 24c-2.565 0-4.703-.873-6.414-2.62-1.689-1.747-2.533-3.881-2.533-6.404 0-2.502.855-4.626 2.565-6.372 1.711-1.768 3.859-2.653 6.447-2.653 2.758 0 5.035 1.014 6.831 3.04l-2.855 2.912c-1.197-1.143-2.533-1.714-4.009-1.714-1.197 0-2.191.463-2.982 1.39-.791.928-1.187 2.06-1.187 3.397 0 1.358.396 2.501 1.187 3.428.812.906 1.871 1.359 3.175 1.359 1.347 0 2.662-.615 3.945-1.844l2.854 2.911c-.941 1.035-1.946 1.822-3.015 2.361-1.069.54-2.405.809-4.009.809zm7.642-.388V0h4.875v8.733c1.433-1.854 3.111-2.782 5.035-2.782 1.839 0 3.272.572 4.298 1.715 1.026 1.143 1.539 2.717 1.539 4.722v11.224h-4.875V13.94c0-1.143-.256-2.017-.769-2.62-.513-.604-1.24-.906-2.181-.906-.941 0-1.689.302-2.245.906-.534.604-.802 1.477-.802 2.62v9.67h-4.875z" fill="#E84061"></path>
  </symbol>
</svg>